<?xml version="1.0" encoding="UTF-8" standalone="no"?>
<!DOCTYPE svg PUBLIC "-//W3C//DTD SVG 1.1//EN"
 "http://www.w3.org/Graphics/SVG/1.1/DTD/svg11.dtd">
<!-- Generated by graphviz version 2.26.3 (20100126.1600)
 -->
<!-- Title: ScriptLexer Pages: 1 -->
<svg width="922pt" height="770pt"
 viewBox="0.00 0.00 922.00 770.00" xmlns="http://www.w3.org/2000/svg" xmlns:xlink="http://www.w3.org/1999/xlink">
<g id="graph1" class="graph" transform="scale(1 1) rotate(0) translate(4 766)">
<title>ScriptLexer</title>
<polygon fill="white" stroke="white" points="-4,5 -4,-766 919,-766 919,5 -4,5"/>
<!-- 0 -->
<g id="node1" class="node"><title>0</title>
<ellipse fill="none" stroke="white" cx="27" cy="-744" rx="27" ry="18"/>
<text text-anchor="middle" x="27" y="-738.9" font-family="Times Roman,serif" font-size="14.00" fill="white">0</text>
</g>
<!-- 1 -->
<g id="node3" class="node"><title>1</title>
<ellipse fill="none" stroke="white" cx="27" cy="-660" rx="27" ry="18"/>
<text text-anchor="middle" x="27" y="-654.9" font-family="Times Roman,serif" font-size="14.00" fill="white">1</text>
</g>
<!-- 0&#45;&gt;1 -->
<g id="edge2" class="edge"><title>0&#45;&gt;1</title>
<path fill="none" stroke="white" d="M27,-725.773C27,-714.876 27,-700.795 27,-688.459"/>
<polygon fill="white" stroke="white" points="30.5001,-688.191 27,-678.191 23.5001,-688.191 30.5001,-688.191"/>
</g>
<!-- 2 -->
<g id="node4" class="node"><title>2</title>
<ellipse fill="none" stroke="white" cx="27" cy="-576" rx="27" ry="18"/>
<text text-anchor="middle" x="27" y="-570.9" font-family="Times Roman,serif" font-size="14.00" fill="white">2</text>
</g>
<!-- 1&#45;&gt;2 -->
<g id="edge3" class="edge"><title>1&#45;&gt;2</title>
<path fill="none" stroke="white" d="M27,-641.773C27,-630.876 27,-616.795 27,-604.459"/>
<polygon fill="white" stroke="white" points="30.5001,-604.191 27,-594.191 23.5001,-604.191 30.5001,-604.191"/>
</g>
<!-- 3 -->
<g id="node5" class="node"><title>3</title>
<ellipse fill="none" stroke="white" cx="27" cy="-492" rx="27" ry="18"/>
<text text-anchor="middle" x="27" y="-486.9" font-family="Times Roman,serif" font-size="14.00" fill="white">3</text>
</g>
<!-- 2&#45;&gt;3 -->
<g id="edge4" class="edge"><title>2&#45;&gt;3</title>
<path fill="none" stroke="white" d="M27,-557.773C27,-546.876 27,-532.795 27,-520.459"/>
<polygon fill="white" stroke="white" points="30.5001,-520.191 27,-510.191 23.5001,-520.191 30.5001,-520.191"/>
</g>
<!-- 4 -->
<g id="node6" class="node"><title>4</title>
<ellipse fill="none" stroke="white" cx="27" cy="-408" rx="27" ry="18"/>
<text text-anchor="middle" x="27" y="-402.9" font-family="Times Roman,serif" font-size="14.00" fill="white">4</text>
</g>
<!-- 3&#45;&gt;4 -->
<g id="edge5" class="edge"><title>3&#45;&gt;4</title>
<path fill="none" stroke="white" d="M27,-473.773C27,-462.876 27,-448.795 27,-436.459"/>
<polygon fill="white" stroke="white" points="30.5001,-436.191 27,-426.191 23.5001,-436.191 30.5001,-436.191"/>
</g>
<!-- 5 -->
<g id="node7" class="node"><title>5</title>
<ellipse fill="none" stroke="white" cx="27" cy="-324" rx="27" ry="18"/>
<text text-anchor="middle" x="27" y="-318.9" font-family="Times Roman,serif" font-size="14.00" fill="white">5</text>
</g>
<!-- 4&#45;&gt;5 -->
<g id="edge6" class="edge"><title>4&#45;&gt;5</title>
<path fill="none" stroke="white" d="M27,-389.773C27,-378.876 27,-364.795 27,-352.459"/>
<polygon fill="white" stroke="white" points="30.5001,-352.191 27,-342.191 23.5001,-352.191 30.5001,-352.191"/>
</g>
<!-- 6 -->
<g id="node8" class="node"><title>6</title>
<ellipse fill="none" stroke="white" cx="27" cy="-250" rx="27" ry="18"/>
<text text-anchor="middle" x="27" y="-244.9" font-family="Times Roman,serif" font-size="14.00" fill="white">6</text>
</g>
<!-- 5&#45;&gt;6 -->
<g id="edge7" class="edge"><title>5&#45;&gt;6</title>
<path fill="none" stroke="white" d="M27,-305.708C27,-297.464 27,-287.538 27,-278.362"/>
<polygon fill="white" stroke="white" points="30.5001,-278.082 27,-268.082 23.5001,-278.082 30.5001,-278.082"/>
</g>
<!-- 7 -->
<g id="node9" class="node"><title>7</title>
<ellipse fill="none" stroke="white" cx="27" cy="-176" rx="27" ry="18"/>
<text text-anchor="middle" x="27" y="-170.9" font-family="Times Roman,serif" font-size="14.00" fill="white">7</text>
</g>
<!-- 6&#45;&gt;7 -->
<g id="edge8" class="edge"><title>6&#45;&gt;7</title>
<path fill="none" stroke="white" d="M27,-231.708C27,-223.464 27,-213.538 27,-204.362"/>
<polygon fill="white" stroke="white" points="30.5001,-204.082 27,-194.082 23.5001,-204.082 30.5001,-204.082"/>
</g>
<!-- 8 -->
<g id="node10" class="node"><title>8</title>
<ellipse fill="none" stroke="white" cx="27" cy="-102" rx="27" ry="18"/>
<text text-anchor="middle" x="27" y="-96.9" font-family="Times Roman,serif" font-size="14.00" fill="white">8</text>
</g>
<!-- 7&#45;&gt;8 -->
<g id="edge9" class="edge"><title>7&#45;&gt;8</title>
<path fill="none" stroke="white" d="M27,-157.708C27,-149.464 27,-139.538 27,-130.362"/>
<polygon fill="white" stroke="white" points="30.5001,-130.082 27,-120.082 23.5001,-130.082 30.5001,-130.082"/>
</g>
<!-- 9 -->
<g id="node11" class="node"><title>9</title>
<ellipse fill="none" stroke="white" cx="27" cy="-18" rx="27" ry="18"/>
<text text-anchor="middle" x="27" y="-12.9" font-family="Times Roman,serif" font-size="14.00" fill="white">9</text>
</g>
<!-- 8&#45;&gt;9 -->
<g id="edge10" class="edge"><title>8&#45;&gt;9</title>
<path fill="none" stroke="white" d="M27,-83.7733C27,-72.8758 27,-58.7946 27,-46.4587"/>
<polygon fill="white" stroke="white" points="30.5001,-46.1911 27,-36.1912 23.5001,-46.1912 30.5001,-46.1911"/>
</g>
<!-- ST_START -->
<g id="node12" class="node"><title>ST_START</title>
<ellipse fill="none" stroke="black" cx="515" cy="-744" rx="46.7846" ry="18"/>
<text text-anchor="middle" x="515" y="-739.7" font-family="Times Roman,serif" font-size="12.00">ST_START</text>
</g>
<!-- ST_START&#45;&gt;ST_START -->
<g id="edge22" class="edge"><title>ST_START&#45;&gt;ST_START</title>
<path fill="none" stroke="black" d="M557.511,-751.858C570.158,-751.623 580,-749.004 580,-744 580,-740.482 575.135,-738.142 567.849,-736.982"/>
<polygon fill="black" stroke="black" points="567.761,-733.463 557.511,-736.142 567.195,-740.44 567.761,-733.463"/>
<text text-anchor="middle" x="600.5" y="-741" font-family="Times Roman,serif" font-size="10.00" fill="blue">&#39; &#39;, &#39;\t&#39;, &#39;\n&#39;</text>
</g>
<!-- ST_IDENTIFIER_FIRST -->
<g id="node13" class="node"><title>ST_IDENTIFIER_FIRST</title>
<ellipse fill="none" stroke="black" cx="160" cy="-660" rx="88.0289" ry="18"/>
<text text-anchor="middle" x="160" y="-655.7" font-family="Times Roman,serif" font-size="12.00">ST_IDENTIFIER_FIRST</text>
</g>
<!-- ST_START&#45;&gt;ST_IDENTIFIER_FIRST -->
<g id="edge24" class="edge"><title>ST_START&#45;&gt;ST_IDENTIFIER_FIRST</title>
<path fill="none" stroke="black" d="M467.932,-742.825C373.911,-739.99 170.038,-731.209 149,-708 143.947,-702.426 143.668,-695.012 145.478,-687.682"/>
<polygon fill="black" stroke="black" points="148.898,-688.514 148.988,-677.919 142.311,-686.145 148.898,-688.514"/>
<text text-anchor="middle" x="171" y="-699" font-family="Times Roman,serif" font-size="10.00" fill="blue">&#39;@&#39;, &#39;$&#39;, &#39;?&#39;</text>
</g>
<!-- ST_START&#45;&gt;ST_IDENTIFIER_FIRST -->
<g id="edge26" class="edge"><title>ST_START&#45;&gt;ST_IDENTIFIER_FIRST</title>
<path fill="none" stroke="black" d="M468.389,-741.687C395.968,-737.543 260.153,-727.413 216,-708 203.912,-702.685 192.475,-693.863 183.127,-685.222"/>
<polygon fill="black" stroke="black" points="185.404,-682.554 175.797,-678.087 180.521,-687.57 185.404,-682.554"/>
<text text-anchor="middle" x="247.5" y="-699" font-family="Times Roman,serif" font-size="10.00" fill="blue">[a&#45;zA&#45;Z_] wcr</text>
</g>
<!-- ST_ONE_SYM_LEX -->
<g id="node15" class="node"><title>ST_ONE_SYM_LEX</title>
<ellipse fill="none" stroke="black" cx="677" cy="-492" rx="76.9484" ry="18"/>
<text text-anchor="middle" x="677" y="-487.7" font-family="Times Roman,serif" font-size="12.00">ST_ONE_SYM_LEX</text>
</g>
<!-- ST_START&#45;&gt;ST_ONE_SYM_LEX -->
<g id="edge36" class="edge"><title>ST_START&#45;&gt;ST_ONE_SYM_LEX</title>
<path fill="none" stroke="black" d="M551.567,-732.509C564.089,-726.923 577.156,-718.978 586,-708 613.66,-673.666 594.695,-652.964 611,-612 624.351,-578.456 645.084,-542.487 659.744,-518.771"/>
<polygon fill="black" stroke="black" points="662.89,-520.342 665.23,-510.008 656.957,-516.627 662.89,-520.342"/>
<text text-anchor="middle" x="658.5" y="-615" font-family="Times Roman,serif" font-size="10.00" fill="blue">*/%+=&lt;&gt;=!()[]:;, wcr</text>
</g>
<!-- ST_TWO_SYM_LEX_FIRST -->
<g id="node16" class="node"><title>ST_TWO_SYM_LEX_FIRST</title>
<ellipse fill="none" stroke="black" cx="327" cy="-408" rx="102.803" ry="18"/>
<text text-anchor="middle" x="327" y="-403.7" font-family="Times Roman,serif" font-size="12.00">ST_TWO_SYM_LEX_FIRST</text>
</g>
<!-- ST_START&#45;&gt;ST_TWO_SYM_LEX_FIRST -->
<g id="edge40" class="edge"><title>ST_START&#45;&gt;ST_TWO_SYM_LEX_FIRST</title>
<path fill="none" stroke="black" d="M473.51,-735.461C435.464,-724.92 385,-702.859 385,-660 385,-660 385,-660 385,-492 385,-469.155 370.294,-448.019 355.692,-432.662"/>
<polygon fill="black" stroke="black" points="358.156,-430.176 348.597,-425.606 353.219,-435.139 358.156,-430.176"/>
<text text-anchor="middle" x="407.5" y="-573" font-family="Times Roman,serif" font-size="10.00" fill="blue">&#39;|&#39;, &#39;&amp;&#39; wcr</text>
</g>
<!-- ST_NUMBER -->
<g id="node18" class="node"><title>ST_NUMBER</title>
<ellipse fill="none" stroke="black" cx="819" cy="-250" rx="54.9037" ry="18"/>
<text text-anchor="middle" x="819" y="-245.7" font-family="Times Roman,serif" font-size="12.00">ST_NUMBER</text>
</g>
<!-- ST_START&#45;&gt;ST_NUMBER -->
<g id="edge48" class="edge"><title>ST_START&#45;&gt;ST_NUMBER</title>
<path fill="none" stroke="black" d="M560.719,-739.551C638.917,-730.663 790,-707.362 790,-660 790,-660 790,-660 790,-324 790,-307.678 796.192,-290.64 802.853,-277.033"/>
<polygon fill="black" stroke="black" points="806.156,-278.271 807.705,-267.79 799.958,-275.018 806.156,-278.271"/>
<text text-anchor="middle" x="801" y="-489" font-family="Times Roman,serif" font-size="10.00" fill="blue">[0&#45;9]</text>
</g>
<!-- ST_STRING -->
<g id="node19" class="node"><title>ST_STRING</title>
<ellipse fill="none" stroke="black" cx="443" cy="-176" rx="49.8625" ry="18"/>
<text text-anchor="middle" x="443" y="-171.7" font-family="Times Roman,serif" font-size="12.00">ST_STRING</text>
</g>
<!-- ST_START&#45;&gt;ST_STRING -->
<g id="edge54" class="edge"><title>ST_START&#45;&gt;ST_STRING</title>
<path fill="none" stroke="black" d="M508.461,-725.914C502.965,-709.08 496,-683.175 496,-660 496,-660 496,-660 496,-250 496,-230.714 483.954,-212.997 471.347,-199.738"/>
<polygon fill="black" stroke="black" points="473.533,-196.979 463.947,-192.468 468.628,-201.972 473.533,-196.979"/>
<text text-anchor="middle" x="498.5" y="-447" font-family="Times Roman,serif" font-size="10.00" fill="blue">&quot;</text>
</g>
<!-- ST_EOF -->
<g id="node20" class="node"><title>ST_EOF</title>
<ellipse fill="none" stroke="black" cx="528" cy="-102" rx="36.9352" ry="18"/>
<text text-anchor="middle" x="528" y="-97.7" font-family="Times Roman,serif" font-size="12.00">ST_EOF</text>
</g>
<!-- ST_START&#45;&gt;ST_EOF -->
<g id="edge62" class="edge"><title>ST_START&#45;&gt;ST_EOF</title>
<path fill="none" stroke="black" d="M534.936,-727.547C551.373,-712.026 572,-687.141 572,-660 572,-660 572,-660 572,-534 572,-459.249 580,-440.751 580,-366 580,-366 580,-366 580,-176 580,-156.311 567.525,-138.156 554.795,-124.756"/>
<polygon fill="black" stroke="black" points="556.945,-121.961 547.363,-117.441 552.034,-126.95 556.945,-121.961"/>
<text text-anchor="middle" x="600.5" y="-405" font-family="Times Roman,serif" font-size="10.00" fill="blue">EOF; wcr</text>
</g>
<!-- ST_IDENTIFIER -->
<g id="node14" class="node"><title>ST_IDENTIFIER</title>
<ellipse fill="none" stroke="black" cx="210" cy="-576" rx="64.021" ry="18"/>
<text text-anchor="middle" x="210" y="-571.7" font-family="Times Roman,serif" font-size="12.00">ST_IDENTIFIER</text>
</g>
<!-- ST_IDENTIFIER_FIRST&#45;&gt;ST_IDENTIFIER -->
<g id="edge28" class="edge"><title>ST_IDENTIFIER_FIRST&#45;&gt;ST_IDENTIFIER</title>
<path fill="none" stroke="black" d="M170.849,-641.773C177.644,-630.358 186.519,-615.449 194.1,-602.712"/>
<polygon fill="black" stroke="black" points="197.236,-604.286 199.344,-593.903 191.221,-600.705 197.236,-604.286"/>
<text text-anchor="middle" x="209.5" y="-615" font-family="Times Roman,serif" font-size="10.00" fill="blue">[a&#45;zA&#45;Z_]</text>
</g>
<!-- ST_ERROR -->
<g id="node21" class="node"><title>ST_ERROR</title>
<ellipse fill="none" stroke="black" cx="356" cy="-18" rx="48.0158" ry="18"/>
<text text-anchor="middle" x="356" y="-13.7" font-family="Times Roman,serif" font-size="12.00">ST_ERROR</text>
</g>
<!-- ST_IDENTIFIER_FIRST&#45;&gt;ST_ERROR -->
<g id="edge30" class="edge"><title>ST_IDENTIFIER_FIRST&#45;&gt;ST_ERROR</title>
<path fill="none" stroke="black" d="M144.837,-641.945C132.807,-625.75 118,-600.783 118,-576 118,-576 118,-576 118,-102 118,-63.4209 230.607,-38.1715 300.907,-26.1673"/>
<polygon fill="black" stroke="black" points="301.666,-29.5893 310.954,-24.4923 300.515,-22.6846 301.666,-29.5893"/>
<text text-anchor="middle" x="150" y="-321" font-family="Times Roman,serif" font-size="10.00" fill="blue">any other; wcr</text>
</g>
<!-- ST_IDENTIFIER&#45;&gt;ST_START -->
<g id="edge34" class="edge"><title>ST_IDENTIFIER&#45;&gt;ST_START</title>
<path fill="none" stroke="black" d="M223.463,-593.802C240.834,-615.829 272.899,-653.427 307,-678 352.767,-710.98 415.662,-727.923 460.277,-736.328"/>
<polygon fill="black" stroke="black" points="459.892,-739.815 470.354,-738.14 461.131,-732.925 459.892,-739.815"/>
<text text-anchor="middle" x="339" y="-657" font-family="Times Roman,serif" font-size="10.00" fill="blue">any other; wcr</text>
</g>
<!-- ST_IDENTIFIER&#45;&gt;ST_IDENTIFIER -->
<g id="edge32" class="edge"><title>ST_IDENTIFIER&#45;&gt;ST_IDENTIFIER</title>
<path fill="none" stroke="black" d="M267.852,-583.736C281.722,-583.131 292,-580.553 292,-576 292,-572.657 286.457,-570.378 278.019,-569.164"/>
<polygon fill="black" stroke="black" points="278.121,-565.659 267.852,-568.264 277.504,-572.632 278.121,-565.659"/>
<text text-anchor="middle" x="320.5" y="-573" font-family="Times Roman,serif" font-size="10.00" fill="blue">[a&#45;zA&#45;Z0&#45;9_]</text>
</g>
<!-- ST_ONE_SYM_LEX&#45;&gt;ST_START -->
<g id="edge38" class="edge"><title>ST_ONE_SYM_LEX&#45;&gt;ST_START</title>
<path fill="none" stroke="black" d="M687.94,-509.907C702.419,-536.089 724.116,-585.849 706,-624 678.948,-680.97 610.344,-713.752 563.174,-730.233"/>
<polygon fill="black" stroke="black" points="561.817,-726.996 553.456,-733.505 564.05,-733.63 561.817,-726.996"/>
<text text-anchor="middle" x="718" y="-615" font-family="Times Roman,serif" font-size="10.00" fill="blue">any</text>
</g>
<!-- ST_TWO_SYM_LEX -->
<g id="node17" class="node"><title>ST_TWO_SYM_LEX</title>
<ellipse fill="none" stroke="black" cx="327" cy="-324" rx="78.7951" ry="18"/>
<text text-anchor="middle" x="327" y="-319.7" font-family="Times Roman,serif" font-size="12.00">ST_TWO_SYM_LEX</text>
</g>
<!-- ST_TWO_SYM_LEX_FIRST&#45;&gt;ST_TWO_SYM_LEX -->
<g id="edge42" class="edge"><title>ST_TWO_SYM_LEX_FIRST&#45;&gt;ST_TWO_SYM_LEX</title>
<path fill="none" stroke="black" d="M327,-389.773C327,-378.876 327,-364.795 327,-352.459"/>
<polygon fill="black" stroke="black" points="330.5,-352.191 327,-342.191 323.5,-352.191 330.5,-352.191"/>
<text text-anchor="middle" x="359" y="-363" font-family="Times Roman,serif" font-size="10.00" fill="blue">proper &#39;|&#39; or &#39;&amp;&#39;</text>
</g>
<!-- ST_TWO_SYM_LEX&#45;&gt;ST_START -->
<g id="edge44" class="edge"><title>ST_TWO_SYM_LEX&#45;&gt;ST_START</title>
<path fill="none" stroke="black" d="M383.316,-336.813C418.822,-348.6 458,-370.176 458,-408 458,-660 458,-660 458,-660 458,-683.324 473.234,-704.982 487.95,-720.463"/>
<polygon fill="black" stroke="black" points="485.508,-722.971 495.064,-727.547 490.448,-718.011 485.508,-722.971"/>
<text text-anchor="middle" x="466" y="-531" font-family="Times Roman,serif" font-size="10.00" fill="blue">any</text>
</g>
<!-- ST_TWO_SYM_LEX&#45;&gt;ST_ERROR -->
<g id="edge46" class="edge"><title>ST_TWO_SYM_LEX&#45;&gt;ST_ERROR</title>
<path fill="none" stroke="black" d="M320.86,-305.988C316.348,-291.147 311,-269.453 311,-250 311,-250 311,-250 311,-102 311,-80.503 322.593,-59.1878 334.011,-43.4081"/>
<polygon fill="black" stroke="black" points="336.961,-45.3127 340.261,-35.245 331.403,-41.0571 336.961,-45.3127"/>
<text text-anchor="middle" x="343" y="-173" font-family="Times Roman,serif" font-size="10.00" fill="blue">any other; wcr</text>
</g>
<!-- ST_NUMBER&#45;&gt;ST_START -->
<g id="edge52" class="edge"><title>ST_NUMBER&#45;&gt;ST_START</title>
<path fill="none" stroke="black" d="M830.295,-267.79C838.438,-282.327 848,-303.716 848,-324 848,-660 848,-660 848,-660 848,-716.233 667.211,-735.203 572.052,-741.293"/>
<polygon fill="black" stroke="black" points="571.772,-737.803 562.004,-741.908 572.2,-744.79 571.772,-737.803"/>
<text text-anchor="middle" x="868.5" y="-489" font-family="Times Roman,serif" font-size="10.00" fill="blue">any other</text>
</g>
<!-- ST_NUMBER&#45;&gt;ST_NUMBER -->
<g id="edge50" class="edge"><title>ST_NUMBER&#45;&gt;ST_NUMBER</title>
<path fill="none" stroke="black" d="M870.168,-256.645C882.685,-256.152 892,-253.938 892,-250 892,-247.231 887.395,-245.315 880.309,-244.249"/>
<polygon fill="black" stroke="black" points="880.436,-240.747 870.168,-243.355 879.822,-247.72 880.436,-240.747"/>
<text text-anchor="middle" x="903" y="-247" font-family="Times Roman,serif" font-size="10.00" fill="blue">[0&#45;9]</text>
</g>
<!-- ST_STRING&#45;&gt;ST_START -->
<g id="edge58" class="edge"><title>ST_STRING&#45;&gt;ST_START</title>
<path fill="none" stroke="black" d="M478.704,-188.661C504.199,-200.246 534,-220.168 534,-250 534,-660 534,-660 534,-660 534,-679.011 529.313,-699.859 524.595,-716.029"/>
<polygon fill="black" stroke="black" points="521.149,-715.326 521.539,-725.914 527.836,-717.394 521.149,-715.326"/>
<text text-anchor="middle" x="536.5" y="-447" font-family="Times Roman,serif" font-size="10.00" fill="blue">&quot;</text>
</g>
<!-- ST_STRING&#45;&gt;ST_STRING -->
<g id="edge56" class="edge"><title>ST_STRING&#45;&gt;ST_STRING</title>
<path fill="none" stroke="black" d="M489.72,-182.68C501.852,-182.27 511,-180.043 511,-176 511,-173.22 506.676,-171.299 500.031,-170.237"/>
<polygon fill="black" stroke="black" points="499.991,-166.719 489.72,-169.32 499.37,-173.692 499.991,-166.719"/>
<text text-anchor="middle" x="531.5" y="-173" font-family="Times Roman,serif" font-size="10.00" fill="blue">any other</text>
</g>
<!-- ST_STRING&#45;&gt;ST_ERROR -->
<g id="edge60" class="edge"><title>ST_STRING&#45;&gt;ST_ERROR</title>
<path fill="none" stroke="black" d="M433.189,-158.183C417.981,-130.564 388.619,-77.2385 370.817,-44.9098"/>
<polygon fill="black" stroke="black" points="373.798,-43.0664 365.909,-35.9948 367.666,-46.4428 373.798,-43.0664"/>
<text text-anchor="middle" x="421.5" y="-99" font-family="Times Roman,serif" font-size="10.00" fill="blue">EOF</text>
</g>
<!-- ST_EOF&#45;&gt;ST_EOF -->
<g id="edge64" class="edge"><title>ST_EOF&#45;&gt;ST_EOF</title>
<path fill="none" stroke="black" d="M562.375,-108.75C573.833,-108.75 583,-106.5 583,-102 583,-98.9766 578.862,-96.9688 572.671,-95.9767"/>
<polygon fill="black" stroke="black" points="572.597,-92.4629 562.375,-95.25 572.104,-99.4455 572.597,-92.4629"/>
<text text-anchor="middle" x="629.5" y="-99" font-family="Times Roman,serif" font-size="10.00" fill="blue">EOF; wcr; return lex;</text>
</g>
<!-- ST_EOF&#45;&gt;ST_ERROR -->
<g id="edge66" class="edge"><title>ST_EOF&#45;&gt;ST_ERROR</title>
<path fill="none" stroke="black" d="M501.877,-89.2422C473.308,-75.2902 427.24,-52.7914 394.522,-36.8132"/>
<polygon fill="black" stroke="black" points="395.775,-33.53 385.254,-32.2866 392.703,-39.82 395.775,-33.53"/>
<text text-anchor="middle" x="484" y="-57" font-family="Times Roman,serif" font-size="10.00" fill="blue">any other; wcr</text>
</g>
<!-- ST_ERROR&#45;&gt;ST_ERROR -->
<g id="edge68" class="edge"><title>ST_ERROR&#45;&gt;ST_ERROR</title>
<path fill="none" stroke="black" d="M399.48,-25.8514C412.17,-25.58 422,-22.9629 422,-18 422,-14.5105 417.14,-12.1806 409.844,-11.0105"/>
<polygon fill="black" stroke="black" points="409.736,-7.48952 399.48,-10.1486 409.155,-14.4654 409.736,-7.48952"/>
<text text-anchor="middle" x="466" y="-15" font-family="Times Roman,serif" font-size="10.00" fill="blue">any; wcr; return lex;</text>
</g>
</g>
</svg>
